<svg width="242" height="55" viewBox="0 0 242 55" fill="none" xmlns="http://www.w3.org/2000/svg">
<path d="M53.3527 22.6577H55.1525V6.45752H53.3527V0.553711H69.1564C72.2526 0.553711 74.6159 1.21973 76.2487 2.55176C77.8805 3.8833 78.6965 6.03809 78.6965 9.01367C78.6965 11.9897 77.8805 14.1436 76.2487 15.4756C74.6159 16.8076 72.2526 17.4736 69.1564 17.4736H65.2326V22.6577H68.6886V28.5615H53.3527L53.3527 22.6577ZM66.4567 12.3613C67.8483 12.3613 68.5446 11.5938 68.5446 10.0576V8.76172C68.5446 7.96973 68.3703 7.3877 68.0226 7.01563C67.6745 6.64356 67.1525 6.45752 66.4567 6.45752H65.2326V12.3613H66.4567Z" fill="#0B1F41"/>
<path d="M108.72 6.45752H106.921V22.6577H108.72V28.5615H95.1124V22.6577H96.8405V16.7173H91.8004V22.6577H93.5285V28.5615H79.9206V22.6577H81.7204V6.45752H79.9206V0.553711H93.5285V6.45752H91.8004V11.9297H96.8405V6.45752H95.1124V0.553711H108.72V6.45752Z" fill="#0B1F41"/>
<path d="M113.526 25.6099C111.138 23.3062 109.944 19.6221 109.944 14.5581C109.944 9.49463 111.138 5.81005 113.526 3.50585C115.914 1.20214 119.304 0.0498047 123.696 0.0498047C128.088 0.0498047 131.478 1.20214 133.866 3.50585C136.254 5.81005 137.448 9.49463 137.448 14.5581C137.448 19.6221 136.254 23.3062 133.866 25.6099C131.478 27.9141 128.088 29.0659 123.696 29.0659C119.304 29.0659 115.914 27.9141 113.526 25.6099ZM125.532 22.0103C125.94 21.5781 126.144 20.9063 126.144 19.9941V9.12208C126.144 8.20996 125.94 7.53809 125.532 7.10596C125.124 6.67383 124.512 6.45801 123.696 6.45801C122.88 6.45801 122.268 6.67383 121.86 7.10596C121.452 7.53809 121.248 8.20996 121.248 9.12208V19.9941C121.248 20.9302 121.452 21.6084 121.86 22.0278C122.268 22.4482 122.88 22.6582 123.696 22.6582C124.512 22.6582 125.124 22.4419 125.532 22.0103Z" fill="#0B1F41"/>
<path d="M138.672 28.5615V22.6577H140.472V6.45752H138.672V0.553711H162.972V11.4253H154.908V6.45752H150.552V12.1455H153.72V16.2495H150.552V22.6577H154.908V16.9697H162.972V28.5615L138.672 28.5615Z" fill="#0B1F41"/>
<path d="M185.075 0.553711H196.883V6.45752H195.083V28.5615H184.968L174.419 12.3257V22.6577H176.148V28.5615H164.34V22.6577H166.14V6.45752H164.34V0.553711H177.335L186.804 14.9898V6.45752H185.075L185.075 0.553711Z" fill="#0B1F41"/>
<path d="M198.25 28.5615V22.6577H200.05V6.45752H198.25V0.553711H211.931V6.45752H210.13V22.6577H211.931V28.5615H198.25Z" fill="#0B1F41"/>
<path d="M239.435 22.6577H240.946V28.5615H227.339V22.6577H228.815L226.727 19.7056H226.366L224.278 22.6577H225.754V28.5615H213.154V22.6577H215.027L221.939 14.8814L214.738 6.45752H213.227V0.553711H226.727V6.45752H225.359L227.339 9.40967H227.698L229.679 6.45752H228.311V0.553711H240.803V6.45752H238.931L232.126 14.1255L239.435 22.6577Z" fill="#0B1F41"/>
<path d="M55.3703 47.6353C53.7643 46.1309 52.9616 43.7261 52.9616 40.4204C52.9616 34.1069 56.0319 30.9502 62.1735 30.9502C63.6618 30.9502 65.0441 31.1304 66.3214 31.4907C67.5978 31.8511 68.5495 32.2505 69.1764 32.689V38.564H63.5363V36.8721C63.5363 36.2769 63.403 35.8379 63.1369 35.5562C62.8703 35.2739 62.4708 35.1328 61.9386 35.1328C61.4059 35.1328 61.006 35.2739 60.7399 35.5562C60.4733 35.8379 60.3405 36.2769 60.3405 36.8721V43.9693C60.3405 44.5645 60.4733 45.0029 60.7399 45.2852C61.006 45.5669 61.4059 45.708 61.9386 45.708C62.4709 45.708 62.8703 45.5669 63.1369 45.2852C63.403 45.0029 63.5363 44.5645 63.5363 43.9693V42.0654H69.1764V48.1519C68.5338 48.5908 67.5822 48.9903 66.3214 49.3506C65.0597 49.711 63.693 49.8911 62.2204 49.8911C59.2594 49.8911 56.9757 49.1392 55.3703 47.6353Z" fill="#0B1F41"/>
<path d="M72.2667 47.6353C70.7077 46.1309 69.9284 43.7261 69.9284 40.4204C69.9284 37.1152 70.7077 34.71 72.2667 33.2061C73.8253 31.7021 76.0382 30.9502 78.9054 30.9502C81.7721 30.9502 83.985 31.7021 85.5441 33.2061C87.1027 34.71 87.8825 37.1152 87.8825 40.4204C87.8825 43.7261 87.1027 46.1309 85.5441 47.6353C83.985 49.1392 81.7721 49.8911 78.9054 49.8911C76.0382 49.8911 73.8253 49.1392 72.2667 47.6353ZM80.1037 45.2852C80.3698 45.0029 80.5031 44.5645 80.5031 43.9692V36.8721C80.5031 36.2769 80.3698 35.8379 80.1037 35.5561C79.8371 35.2739 79.4376 35.1328 78.9054 35.1328C78.3727 35.1328 77.9728 35.2739 77.7067 35.5561C77.4401 35.8379 77.3073 36.2768 77.3073 36.8721V43.9692C77.3073 44.5801 77.4401 45.0229 77.7067 45.2969C77.9728 45.5713 78.3727 45.708 78.9054 45.708C79.4376 45.708 79.8371 45.5669 80.1037 45.2852Z" fill="#0B1F41"/>
<path d="M91.7711 48.27C90.4318 47.189 89.7619 45.4346 89.7619 43.0059V35.1333H88.5871V31.2793H97.2819V35.1333H96.3419V44.2046C96.3419 44.7217 96.4557 45.1016 96.6828 45.3442C96.9098 45.5874 97.2506 45.7085 97.7052 45.7085C98.1593 45.7085 98.5002 45.5874 98.7272 45.3442C98.9543 45.1016 99.068 44.7217 99.068 44.2046V35.1333H98.1281V31.2793H106.189V35.1333H105.014V43.0059C105.014 45.4346 104.363 47.189 103.063 48.27C101.762 49.3511 99.8981 49.8916 97.4699 49.8916C95.0104 49.8916 93.111 49.3511 91.7711 48.27Z" fill="#0B1F41"/>
<path d="M120.57 31.2783H128.278V35.1323H127.103V49.5615H120.5L113.614 38.9629V45.7075H114.742V49.5615H107.034V45.7075H108.209V35.1323H107.034V31.2783H115.518L121.698 40.7021V35.1323H120.57L120.57 31.2783Z" fill="#0B1F41"/>
<path d="M146.702 36.9663H142.66V35.1333H141.156V45.7085H142.801V49.5625H132.931V45.7085H134.576V35.1333H133.072V36.9663H129.03V31.2793H146.702V36.9663Z" fill="#0B1F41"/>
<path d="M147.501 45.7075H148.676V35.1323H147.501V31.2783H158.287C160.308 31.2783 161.851 31.6938 162.917 32.5239C163.982 33.3545 164.515 34.7017 164.515 36.5659C164.515 37.6157 164.303 38.5244 163.88 39.292C163.457 40.0596 162.854 40.5928 162.071 40.8901L162.094 41.125C163.598 41.3598 164.35 42.2847 164.35 43.8979V45.7075H165.454V49.5615H158.006V44.0391C158.006 43.4282 157.915 42.9663 157.735 42.6523C157.555 42.3393 157.273 42.1279 156.889 42.0181C156.505 41.9087 155.961 41.8535 155.256 41.8535V45.7075H156.807V49.5615H147.501V45.7075ZM156.525 38.9863C156.979 38.9863 157.32 38.8652 157.547 38.6221C157.774 38.3794 157.888 37.9995 157.888 37.4824V36.6367C157.888 36.1196 157.774 35.7398 157.547 35.4966C157.32 35.2539 156.979 35.1323 156.525 35.1323H155.256V38.9863L156.525 38.9863Z" fill="#0B1F41"/>
<path d="M175.63 31.2783H182.845V35.1323H181.904L177.369 43.2637V45.7075H178.544V49.5615H169.614V45.7075H170.789V43.2637L166.112 35.1323H165.173V31.2783H174.267V35.1323H173.444L174.831 38.7749H175.066L176.452 35.1323H175.63L175.63 31.2783Z" fill="#0B1F41"/>
<path d="M190.646 45.7075H191.82V35.1562H190.646V31.2783H200.186C202.803 31.2783 204.883 31.9951 206.426 33.4287C207.969 34.8623 208.74 37.1929 208.74 40.4199C208.74 43.6475 207.969 45.9775 206.426 47.4111C204.883 48.8447 202.803 49.5615 200.186 49.5615H190.646V45.7075ZM199.764 45.7075C200.295 45.7075 200.695 45.5664 200.961 45.2847C201.229 45.0024 201.361 44.564 201.361 43.9688V36.8716C201.361 35.7124 200.828 35.1323 199.764 35.1323H198.401V45.7075H199.764Z" fill="#0B1F41"/>
<path d="M226.083 45.7075H227.024V49.5615H217.812V45.7075H219.222L218.846 43.8276H215.65L215.274 45.7075H216.684V49.5615H208.647V45.7075H209.586L213.558 31.2783H222.111L226.083 45.7075ZM216.166 41.3364H218.328L217.365 36.6602H217.13L216.166 41.3364Z" fill="#0B1F41"/>
<path d="M234.755 31.2783H241.97V35.1323H241.029L236.494 43.2637V45.7075H237.669V49.5615H228.739V45.7075H229.914V43.2637L225.237 35.1323H224.298V31.2783H233.393V35.1323H232.569L233.956 38.7749H234.192L235.577 35.1323H234.755L234.755 31.2783Z" fill="#0B1F41"/>
<path d="M34.7926 30.4346C30.6969 30.4346 19.549 31.2333 4.5157 38.6278L2.80707 39.4688C6.892 46.9472 14.933 52.6656 23.508 54.9997C26.2961 54.602 41.6141 49.0617 45.2332 33.6604C45.2495 33.5933 44.1963 32.8479 44.1133 32.7916C41.2938 30.8638 38.1635 30.4346 34.7926 30.4346Z" fill="#0B1F41"/>
<path d="M23.2022 8.84294C27.1734 9.68985 30.4607 10.8637 33.2521 12.4324C34.0772 12.8946 35.15 13.5489 36.111 14.4899C36.7305 15.0987 37.2263 15.8015 37.5915 16.5784C38.8679 16.8336 40.4384 17.3428 42.0145 18.3407C43.2428 19.118 44.6189 20.2986 45.7958 22.0635V1.35742H0.000183105V4.92761L2.30316 5.19202C7.92785 5.83636 14.3732 6.96212 23.2022 8.84294Z" fill="#0B1F41"/>
<path d="M45.1968 30.3626C45.0579 29.966 44.7769 29.5957 44.3654 29.2543C40.3305 25.9178 21.7304 25.5497 1.13612 35.6792C0.40328 33.5051 0 31.221 0 28.8595V8.4571C5.68765 9.10847 13.9534 10.2335 22.518 12.0573C25.6509 12.7253 28.8323 13.7181 31.6433 15.2975C32.0325 15.5164 32.4198 15.7471 32.7876 16.003C33.1516 16.2544 33.4964 16.5292 33.8119 16.8381C34.2681 17.2861 34.6191 17.8379 34.8298 18.5185C35.9508 18.7 37.4754 19.1184 38.9866 20.0761C39.5095 20.4071 40.0661 20.8286 40.6182 21.3596C42.6961 22.8153 44.6784 25.4819 45.1968 30.3626Z" fill="#CF912A"/>
<path d="M25.2013 16.9688L29.3773 20.3731L33.0916 18.6711L25.2013 16.9688Z" fill="white"/>
</svg>
